<svg xmlns="http://www.w3.org/2000/svg" viewBox="0 0 500 500"><g id="freepik--background-simple--inject-74"><path d="M441.32,128.15S412.41,54.91,325.67,34.67,188.83,69.36,187.87,106s-1.93,85.77-19.27,98.3-85.77-6.75-119.5,16.38S-15.47,332.45,44.28,398s189.85,6.74,232.25,23.12S398,460.62,443.24,444.23s61.68-90.58,34.69-141.66-57.82-68.42-57.82-93.47S454.81,176.33,441.32,128.15Z" style="fill:#F2D2AF"></path><path d="M441.32,128.15S412.41,54.91,325.67,34.67,188.83,69.36,187.87,106s-1.93,85.77-19.27,98.3-85.77-6.75-119.5,16.38S-15.47,332.45,44.28,398s189.85,6.74,232.25,23.12S398,460.62,443.24,444.23s61.68-90.58,34.69-141.66-57.82-68.42-57.82-93.47S454.81,176.33,441.32,128.15Z" style="fill:#fff;opacity:0.8"></path></g><g id="freepik--Wallpaper--inject-74"><g style="opacity:0.05"><circle cx="109.32" cy="176.15" r="6.9" transform="translate(-92.74 222.55) rotate(-71.11)"></circle><path d="M102.09,169.35a2.38,2.38,0,1,1-3.18-1.11A2.38,2.38,0,0,1,102.09,169.35Z"></path><path d="M113.22,164a2.37,2.37,0,1,1-3.17-1.11A2.37,2.37,0,0,1,113.22,164Z"></path><path d="M106.83,165a2.38,2.38,0,1,1-3.18-1.11A2.38,2.38,0,0,1,106.83,165Z"></path><circle cx="63.32" cy="201.15" r="6.9" transform="translate(-147.46 194.55) rotate(-70.73)"></circle><path d="M56.09,194.35a2.38,2.38,0,1,1-3.18-1.11A2.38,2.38,0,0,1,56.09,194.35Z"></path><path d="M67.22,189a2.37,2.37,0,1,1-3.17-1.11A2.37,2.37,0,0,1,67.22,189Z"></path><path d="M60.83,190a2.38,2.38,0,1,1-3.18-1.11A2.38,2.38,0,0,1,60.83,190Z"></path><circle cx="142.32" cy="87.15" r="6.9" transform="translate(13.78 193.59) rotate(-71.11)"></circle><path d="M135.09,80.35a2.38,2.38,0,1,1-3.18-1.11A2.38,2.38,0,0,1,135.09,80.35Z"></path><path d="M146.22,75a2.37,2.37,0,1,1-3.17-1.11A2.37,2.37,0,0,1,146.22,75Z"></path><path d="M139.83,76a2.38,2.38,0,1,1-3.18-1.11A2.38,2.38,0,0,1,139.83,76Z"></path><path d="M135.46,41a6.9,6.9,0,1,1-4.24-8.78A6.91,6.91,0,0,1,135.46,41Z"></path><path d="M128.64,28.82a2.38,2.38,0,1,1-1.46-3A2.38,2.38,0,0,1,128.64,28.82Z"></path><path d="M140.31,32.9a2.38,2.38,0,1,1-1.46-3A2.38,2.38,0,0,1,140.31,32.9Z"></path><path d="M135.1,29.06a2.38,2.38,0,1,1-1.46-3A2.37,2.37,0,0,1,135.1,29.06Z"></path><path d="M106,123.17a6.9,6.9,0,1,1-4.23-8.79A6.89,6.89,0,0,1,106,123.17Z"></path><path d="M99.21,111a2.38,2.38,0,1,1-1.46-3A2.38,2.38,0,0,1,99.21,111Z"></path><path d="M110.88,115a2.38,2.38,0,1,1-1.46-3A2.38,2.38,0,0,1,110.88,115Z"></path><path d="M105.67,111.21a2.38,2.38,0,1,1-1.46-3A2.39,2.39,0,0,1,105.67,111.21Z"></path><path d="M57.56,136.64a6.89,6.89,0,1,1-9.21-3.22A6.89,6.89,0,0,1,57.56,136.64Z"></path><path d="M44.11,132.83a2.37,2.37,0,1,1-3.17-1.11A2.38,2.38,0,0,1,44.11,132.83Z"></path><path d="M55.25,127.46a2.38,2.38,0,1,1-3.18-1.11A2.38,2.38,0,0,1,55.25,127.46Z"></path><path d="M48.85,128.43a2.37,2.37,0,1,1-3.17-1.11A2.37,2.37,0,0,1,48.85,128.43Z"></path><path d="M84.82,70a6.9,6.9,0,1,1-9.21-3.21A6.9,6.9,0,0,1,84.82,70Z"></path><path d="M71.37,66.22a2.38,2.38,0,1,1-3.18-1.11A2.38,2.38,0,0,1,71.37,66.22Z"></path><path d="M82.5,60.86a2.37,2.37,0,1,1-3.17-1.11A2.37,2.37,0,0,1,82.5,60.86Z"></path><path d="M76.11,61.83a2.37,2.37,0,1,1-3.17-1.11A2.38,2.38,0,0,1,76.11,61.83Z"></path><path d="M158.82,136a6.9,6.9,0,1,1-9.21-3.21A6.9,6.9,0,0,1,158.82,136Z"></path><path d="M145.37,132.22a2.38,2.38,0,1,1-3.18-1.11A2.38,2.38,0,0,1,145.37,132.22Z"></path><path d="M156.5,126.86a2.37,2.37,0,1,1-3.17-1.11A2.37,2.37,0,0,1,156.5,126.86Z"></path><path d="M150.11,127.83a2.37,2.37,0,1,1-3.17-1.11A2.38,2.38,0,0,1,150.11,127.83Z"></path><path d="M149.24,214a6.89,6.89,0,1,1-4.23-8.79A6.89,6.89,0,0,1,149.24,214Z"></path><path d="M142.43,201.81a2.38,2.38,0,1,1-1.46-3A2.37,2.37,0,0,1,142.43,201.81Z"></path><path d="M154.1,205.89a2.38,2.38,0,1,1-1.46-3A2.37,2.37,0,0,1,154.1,205.89Z"></path><path d="M148.89,202.06a2.38,2.38,0,1,1-1.46-3A2.38,2.38,0,0,1,148.89,202.06Z"></path><circle cx="259.32" cy="176.15" r="6.9" transform="translate(8.69 364.46) rotate(-71.11)"></circle><path d="M252.09,169.35a2.38,2.38,0,1,1-3.18-1.11A2.38,2.38,0,0,1,252.09,169.35Z"></path><path d="M263.22,164a2.37,2.37,0,1,1-3.17-1.11A2.37,2.37,0,0,1,263.22,164Z"></path><path d="M256.83,165a2.38,2.38,0,1,1-3.18-1.11A2.38,2.38,0,0,1,256.83,165Z"></path><circle cx="213.32" cy="201.15" r="6.9" transform="translate(-46.07 337.85) rotate(-71.11)"></circle><path d="M206.09,194.35a2.38,2.38,0,1,1-3.18-1.11A2.38,2.38,0,0,1,206.09,194.35Z"></path><path d="M217.22,189a2.37,2.37,0,1,1-3.17-1.11A2.37,2.37,0,0,1,217.22,189Z"></path><path d="M210.83,190a2.38,2.38,0,1,1-3.18-1.11A2.38,2.38,0,0,1,210.83,190Z"></path><circle cx="292.32" cy="87.15" r="6.9" transform="translate(115.21 335.5) rotate(-71.11)"></circle><path d="M285.09,80.35a2.38,2.38,0,1,1-3.18-1.11A2.38,2.38,0,0,1,285.09,80.35Z"></path><path d="M296.22,75a2.37,2.37,0,1,1-3.17-1.11A2.37,2.37,0,0,1,296.22,75Z"></path><path d="M289.83,76a2.38,2.38,0,1,1-3.18-1.11A2.38,2.38,0,0,1,289.83,76Z"></path><path d="M285.46,41a6.9,6.9,0,1,1-4.24-8.78A6.91,6.91,0,0,1,285.46,41Z"></path><path d="M278.64,28.82a2.38,2.38,0,1,1-1.46-3A2.38,2.38,0,0,1,278.64,28.82Z"></path><path d="M290.31,32.9a2.38,2.38,0,1,1-1.46-3A2.38,2.38,0,0,1,290.31,32.9Z"></path><path d="M285.1,29.06a2.38,2.38,0,1,1-1.46-3A2.37,2.37,0,0,1,285.1,29.06Z"></path><path d="M249.82,125.47a6.89,6.89,0,1,1,3.21-9.2A6.89,6.89,0,0,1,249.82,125.47Z"></path><path d="M253.63,112a2.38,2.38,0,1,1,1.11-3.17A2.38,2.38,0,0,1,253.63,112Z"></path><path d="M259,123.16a2.38,2.38,0,1,1,1.11-3.17A2.38,2.38,0,0,1,259,123.16Z"></path><path d="M258,116.77a2.38,2.38,0,1,1,1.11-3.18A2.38,2.38,0,0,1,258,116.77Z"></path><path d="M207.56,136.64a6.89,6.89,0,1,1-9.21-3.22A6.89,6.89,0,0,1,207.56,136.64Z"></path><path d="M194.11,132.83a2.37,2.37,0,1,1-3.17-1.11A2.38,2.38,0,0,1,194.11,132.83Z"></path><path d="M205.25,127.46a2.38,2.38,0,1,1-3.18-1.11A2.38,2.38,0,0,1,205.25,127.46Z"></path><path d="M198.85,128.43a2.37,2.37,0,1,1-3.17-1.11A2.37,2.37,0,0,1,198.85,128.43Z"></path><path d="M234.82,70a6.9,6.9,0,1,1-9.21-3.21A6.9,6.9,0,0,1,234.82,70Z"></path><path d="M221.37,66.22a2.38,2.38,0,1,1-3.18-1.11A2.38,2.38,0,0,1,221.37,66.22Z"></path><path d="M232.5,60.86a2.37,2.37,0,1,1-3.17-1.11A2.37,2.37,0,0,1,232.5,60.86Z"></path><path d="M226.11,61.83a2.37,2.37,0,1,1-3.17-1.11A2.38,2.38,0,0,1,226.11,61.83Z"></path><path d="M308.82,136a6.9,6.9,0,1,1-9.21-3.21A6.9,6.9,0,0,1,308.82,136Z"></path><path d="M295.37,132.22a2.38,2.38,0,1,1-3.18-1.11A2.38,2.38,0,0,1,295.37,132.22Z"></path><path d="M306.5,126.86a2.37,2.37,0,1,1-3.17-1.11A2.37,2.37,0,0,1,306.5,126.86Z"></path><path d="M300.11,127.83a2.37,2.37,0,1,1-3.17-1.11A2.38,2.38,0,0,1,300.11,127.83Z"></path><path d="M299.24,214a6.89,6.89,0,1,1-4.23-8.79A6.89,6.89,0,0,1,299.24,214Z"></path><path d="M292.43,201.81a2.38,2.38,0,1,1-1.46-3A2.37,2.37,0,0,1,292.43,201.81Z"></path><path d="M304.1,205.89a2.38,2.38,0,1,1-1.46-3A2.37,2.37,0,0,1,304.1,205.89Z"></path><path d="M298.89,202.06a2.38,2.38,0,1,1-1.46-3A2.38,2.38,0,0,1,298.89,202.06Z"></path><circle cx="425.32" cy="207.15" r="6.9" transform="translate(91.61 542.48) rotate(-71.11)"></circle><path d="M418.09,200.35a2.38,2.38,0,1,1-3.18-1.11A2.38,2.38,0,0,1,418.09,200.35Z"></path><path d="M429.22,195a2.37,2.37,0,1,1-3.17-1.11A2.37,2.37,0,0,1,429.22,195Z"></path><path d="M422.83,196a2.38,2.38,0,1,1-3.18-1.11A2.38,2.38,0,0,1,422.83,196Z"></path><path d="M382.78,235.18a6.9,6.9,0,1,1-4.23-8.79A6.89,6.89,0,0,1,382.78,235.18Z"></path><path d="M376,223a2.37,2.37,0,1,1-1.46-3A2.38,2.38,0,0,1,376,223Z"></path><path d="M387.64,227.05a2.38,2.38,0,1,1-1.46-3A2.38,2.38,0,0,1,387.64,227.05Z"></path><path d="M382.43,223.21a2.38,2.38,0,1,1-1.46-3A2.38,2.38,0,0,1,382.43,223.21Z"></path><circle cx="458.32" cy="118.15" r="6.9" transform="translate(198.13 513.52) rotate(-71.11)"></circle><path d="M451.09,111.35a2.38,2.38,0,1,1-3.18-1.11A2.38,2.38,0,0,1,451.09,111.35Z"></path><path d="M462.22,106a2.37,2.37,0,1,1-3.17-1.11A2.37,2.37,0,0,1,462.22,106Z"></path><path d="M455.83,107a2.38,2.38,0,1,1-3.18-1.11A2.38,2.38,0,0,1,455.83,107Z"></path><path d="M451.46,72a6.9,6.9,0,1,1-4.24-8.78A6.91,6.91,0,0,1,451.46,72Z"></path><path d="M444.64,59.82a2.38,2.38,0,1,1-1.46-3A2.38,2.38,0,0,1,444.64,59.82Z"></path><path d="M456.31,63.9a2.38,2.38,0,1,1-1.46-3A2.38,2.38,0,0,1,456.31,63.9Z"></path><path d="M451.1,60.06a2.38,2.38,0,1,1-1.46-3A2.37,2.37,0,0,1,451.1,60.06Z"></path><path d="M424.78,148.15a6.9,6.9,0,1,1-9.21-3.22A6.89,6.89,0,0,1,424.78,148.15Z"></path><path d="M411.33,144.34a2.38,2.38,0,1,1-3.18-1.11A2.38,2.38,0,0,1,411.33,144.34Z"></path><path d="M422.46,139a2.37,2.37,0,1,1-3.17-1.11A2.37,2.37,0,0,1,422.46,139Z"></path><path d="M416.07,139.94a2.37,2.37,0,1,1-3.17-1.11A2.38,2.38,0,0,1,416.07,139.94Z"></path><path d="M373.56,167.64a6.89,6.89,0,1,1-9.21-3.22A6.89,6.89,0,0,1,373.56,167.64Z"></path><path d="M360.11,163.83a2.37,2.37,0,1,1-3.17-1.11A2.38,2.38,0,0,1,360.11,163.83Z"></path><path d="M371.25,158.46a2.38,2.38,0,1,1-3.18-1.11A2.38,2.38,0,0,1,371.25,158.46Z"></path><path d="M364.85,159.43a2.37,2.37,0,1,1-3.17-1.11A2.37,2.37,0,0,1,364.85,159.43Z"></path><path d="M400.82,101a6.9,6.9,0,1,1-9.21-3.21A6.9,6.9,0,0,1,400.82,101Z"></path><path d="M387.37,97.22a2.38,2.38,0,1,1-3.18-1.11A2.38,2.38,0,0,1,387.37,97.22Z"></path><path d="M398.5,91.86a2.37,2.37,0,1,1-3.17-1.11A2.37,2.37,0,0,1,398.5,91.86Z"></path><path d="M392.11,92.83a2.37,2.37,0,1,1-3.17-1.11A2.38,2.38,0,0,1,392.11,92.83Z"></path><path d="M472.06,173.05a6.9,6.9,0,1,1-4.23-8.78A6.9,6.9,0,0,1,472.06,173.05Z"></path><path d="M465.25,160.85a2.38,2.38,0,1,1-1.46-3A2.38,2.38,0,0,1,465.25,160.85Z"></path><path d="M476.92,164.93a2.38,2.38,0,1,1-1.46-3A2.38,2.38,0,0,1,476.92,164.93Z"></path><path d="M471.71,161.09a2.38,2.38,0,1,1-1.46-3A2.38,2.38,0,0,1,471.71,161.09Z"></path><path d="M468,239a6.89,6.89,0,1,1-9.2-3.22A6.89,6.89,0,0,1,468,239Z"></path><path d="M454.55,235.19a2.37,2.37,0,1,1-3.17-1.11A2.38,2.38,0,0,1,454.55,235.19Z"></path><path d="M465.69,229.82a2.38,2.38,0,1,1-3.18-1.11A2.39,2.39,0,0,1,465.69,229.82Z"></path><path d="M459.29,230.79a2.38,2.38,0,1,1-3.17-1.11A2.38,2.38,0,0,1,459.29,230.79Z"></path><circle cx="109.32" cy="386.15" r="6.9" transform="matrix(0.32, -0.95, 0.95, 0.32, -291.42, 364.55)"></circle><path d="M102.09,379.35a2.38,2.38,0,1,1-3.18-1.11A2.38,2.38,0,0,1,102.09,379.35Z"></path><path d="M113.22,374a2.37,2.37,0,1,1-3.17-1.11A2.37,2.37,0,0,1,113.22,374Z"></path><path d="M106.83,375a2.38,2.38,0,1,1-3.18-1.11A2.38,2.38,0,0,1,106.83,375Z"></path><path d="M66.78,414.18a6.9,6.9,0,1,1-4.23-8.79A6.89,6.89,0,0,1,66.78,414.18Z"></path><path d="M60,402a2.37,2.37,0,1,1-1.46-3A2.37,2.37,0,0,1,60,402Z"></path><path d="M71.64,406.05a2.38,2.38,0,1,1-1.46-3A2.38,2.38,0,0,1,71.64,406.05Z"></path><path d="M66.43,402.21a2.38,2.38,0,1,1-1.46-3A2.38,2.38,0,0,1,66.43,402.21Z"></path><circle cx="142.32" cy="297.15" r="6.9" transform="matrix(0.32, -0.95, 0.95, 0.32, -184.9, 335.59)"></circle><path d="M135.09,290.35a2.38,2.38,0,1,1-3.18-1.11A2.38,2.38,0,0,1,135.09,290.35Z"></path><path d="M146.22,285a2.37,2.37,0,1,1-3.17-1.11A2.37,2.37,0,0,1,146.22,285Z"></path><path d="M139.83,286a2.38,2.38,0,1,1-3.18-1.11A2.38,2.38,0,0,1,139.83,286Z"></path><path d="M135.9,238.8a6.9,6.9,0,1,1-8.78,4.24A6.91,6.91,0,0,1,135.9,238.8Z"></path><path d="M123.7,245.62a2.38,2.38,0,1,1-3,1.46A2.38,2.38,0,0,1,123.7,245.62Z"></path><path d="M127.78,234a2.38,2.38,0,1,1-3,1.46A2.38,2.38,0,0,1,127.78,234Z"></path><path d="M123.94,239.15a2.38,2.38,0,1,1-3,1.46A2.38,2.38,0,0,1,123.94,239.15Z"></path><path d="M99.82,335.47a6.89,6.89,0,1,1,3.21-9.2A6.89,6.89,0,0,1,99.82,335.47Z"></path><path d="M103.63,322a2.38,2.38,0,1,1,1.11-3.17A2.38,2.38,0,0,1,103.63,322Z"></path><path d="M109,333.16a2.38,2.38,0,1,1,1.11-3.17A2.38,2.38,0,0,1,109,333.16Z"></path><path d="M108,326.77a2.38,2.38,0,1,1,1.11-3.18A2.38,2.38,0,0,1,108,326.77Z"></path><path d="M54.8,352.66a6.89,6.89,0,1,1-4.23-8.79A6.89,6.89,0,0,1,54.8,352.66Z"></path><path d="M48,340.45a2.38,2.38,0,1,1-1.46-3A2.38,2.38,0,0,1,48,340.45Z"></path><path d="M59.66,344.53a2.38,2.38,0,1,1-1.46-3A2.38,2.38,0,0,1,59.66,344.53Z"></path><path d="M54.45,340.69a2.38,2.38,0,1,1-1.46-3A2.37,2.37,0,0,1,54.45,340.69Z"></path><path d="M84.82,280a6.9,6.9,0,1,1-9.21-3.21A6.9,6.9,0,0,1,84.82,280Z"></path><path d="M71.37,276.22a2.38,2.38,0,1,1-3.18-1.11A2.38,2.38,0,0,1,71.37,276.22Z"></path><path d="M82.5,270.86a2.37,2.37,0,1,1-3.17-1.11A2.37,2.37,0,0,1,82.5,270.86Z"></path><path d="M76.11,271.83a2.37,2.37,0,1,1-3.17-1.11A2.38,2.38,0,0,1,76.11,271.83Z"></path><path d="M158.82,346a6.9,6.9,0,1,1-9.21-3.21A6.9,6.9,0,0,1,158.82,346Z"></path><path d="M145.37,342.22a2.38,2.38,0,1,1-3.18-1.11A2.38,2.38,0,0,1,145.37,342.22Z"></path><path d="M156.5,336.86a2.37,2.37,0,1,1-3.17-1.11A2.37,2.37,0,0,1,156.5,336.86Z"></path><path d="M150.11,337.83a2.37,2.37,0,1,1-3.17-1.11A2.38,2.38,0,0,1,150.11,337.83Z"></path><path d="M152,418a6.89,6.89,0,1,1-9.2-3.22A6.89,6.89,0,0,1,152,418Z"></path><path d="M138.55,414.19a2.37,2.37,0,1,1-3.17-1.11A2.38,2.38,0,0,1,138.55,414.19Z"></path><path d="M149.69,408.82a2.38,2.38,0,1,1-3.18-1.11A2.39,2.39,0,0,1,149.69,408.82Z"></path><path d="M143.29,409.79a2.38,2.38,0,1,1-3.17-1.11A2.38,2.38,0,0,1,143.29,409.79Z"></path><circle cx="259.32" cy="386.15" r="6.9" transform="matrix(0.32, -0.95, 0.95, 0.32, -189.99, 506.46)"></circle><path d="M252.09,379.35a2.38,2.38,0,1,1-3.18-1.11A2.38,2.38,0,0,1,252.09,379.35Z"></path><path d="M263.22,374a2.37,2.37,0,1,1-3.17-1.11A2.37,2.37,0,0,1,263.22,374Z"></path><path d="M256.83,375a2.38,2.38,0,1,1-3.18-1.11A2.38,2.38,0,0,1,256.83,375Z"></path><circle cx="213.32" cy="411.15" r="6.9" transform="matrix(0.32, -0.95, 0.95, 0.32, -244.75, 479.85)"></circle><path d="M206.09,404.35a2.38,2.38,0,1,1-3.18-1.11A2.38,2.38,0,0,1,206.09,404.35Z"></path><path d="M217.22,399a2.37,2.37,0,1,1-3.17-1.11A2.37,2.37,0,0,1,217.22,399Z"></path><path d="M210.83,400a2.38,2.38,0,1,1-3.18-1.11A2.38,2.38,0,0,1,210.83,400Z"></path><circle cx="292.32" cy="297.15" r="6.9" transform="matrix(0.32, -0.95, 0.95, 0.32, -83.47, 477.5)"></circle><path d="M285.09,290.35a2.38,2.38,0,1,1-3.18-1.11A2.38,2.38,0,0,1,285.09,290.35Z"></path><path d="M296.22,285a2.37,2.37,0,1,1-3.17-1.11A2.37,2.37,0,0,1,296.22,285Z"></path><path d="M289.83,286a2.38,2.38,0,1,1-3.18-1.11A2.38,2.38,0,0,1,289.83,286Z"></path><path d="M288.21,245a6.89,6.89,0,1,1-9.2-3.22A6.89,6.89,0,0,1,288.21,245Z"></path><path d="M274.76,241.2a2.37,2.37,0,1,1-3.17-1.11A2.38,2.38,0,0,1,274.76,241.2Z"></path><path d="M285.9,235.83a2.37,2.37,0,1,1-3.18-1.11A2.38,2.38,0,0,1,285.9,235.83Z"></path><path d="M279.5,236.8a2.37,2.37,0,1,1-3.17-1.11A2.37,2.37,0,0,1,279.5,236.8Z"></path><path d="M258.78,327.15a6.9,6.9,0,1,1-9.21-3.22A6.89,6.89,0,0,1,258.78,327.15Z"></path><path d="M245.33,323.34a2.38,2.38,0,1,1-3.18-1.11A2.38,2.38,0,0,1,245.33,323.34Z"></path><path d="M256.46,318a2.37,2.37,0,1,1-3.17-1.11A2.37,2.37,0,0,1,256.46,318Z"></path><path d="M250.07,318.94a2.37,2.37,0,1,1-3.17-1.11A2.38,2.38,0,0,1,250.07,318.94Z"></path><path d="M207.56,346.64a6.89,6.89,0,1,1-9.21-3.22A6.89,6.89,0,0,1,207.56,346.64Z"></path><path d="M194.11,342.83a2.37,2.37,0,1,1-3.17-1.11A2.38,2.38,0,0,1,194.11,342.83Z"></path><path d="M205.25,337.46a2.38,2.38,0,1,1-3.18-1.11A2.38,2.38,0,0,1,205.25,337.46Z"></path><path d="M198.85,338.43a2.37,2.37,0,1,1-3.17-1.11A2.37,2.37,0,0,1,198.85,338.43Z"></path><path d="M234.82,280a6.9,6.9,0,1,1-9.21-3.21A6.9,6.9,0,0,1,234.82,280Z"></path><path d="M221.37,276.22a2.38,2.38,0,1,1-3.18-1.11A2.38,2.38,0,0,1,221.37,276.22Z"></path><path d="M232.5,270.86a2.37,2.37,0,1,1-3.17-1.11A2.37,2.37,0,0,1,232.5,270.86Z"></path><path d="M226.11,271.83a2.37,2.37,0,1,1-3.17-1.11A2.38,2.38,0,0,1,226.11,271.83Z"></path><path d="M308.82,346a6.9,6.9,0,1,1-9.21-3.21A6.9,6.9,0,0,1,308.82,346Z"></path><path d="M295.37,342.22a2.38,2.38,0,1,1-3.18-1.11A2.38,2.38,0,0,1,295.37,342.22Z"></path><path d="M306.5,336.86a2.37,2.37,0,1,1-3.17-1.11A2.37,2.37,0,0,1,306.5,336.86Z"></path><path d="M300.11,337.83a2.37,2.37,0,1,1-3.17-1.11A2.38,2.38,0,0,1,300.11,337.83Z"></path><path d="M302,418a6.89,6.89,0,1,1-9.2-3.22A6.89,6.89,0,0,1,302,418Z"></path><path d="M288.55,414.19a2.37,2.37,0,1,1-3.17-1.11A2.38,2.38,0,0,1,288.55,414.19Z"></path><path d="M299.69,408.82a2.38,2.38,0,1,1-3.18-1.11A2.39,2.39,0,0,1,299.69,408.82Z"></path><path d="M293.29,409.79a2.38,2.38,0,1,1-3.17-1.11A2.38,2.38,0,0,1,293.29,409.79Z"></path><circle cx="409.32" cy="386.15" r="6.9" transform="matrix(0.32, -0.95, 0.95, 0.32, -88.56, 648.38)"></circle><path d="M402.09,379.35a2.38,2.38,0,1,1-3.18-1.11A2.38,2.38,0,0,1,402.09,379.35Z"></path><path d="M413.22,374a2.37,2.37,0,1,1-3.17-1.11A2.37,2.37,0,0,1,413.22,374Z"></path><path d="M406.83,375a2.38,2.38,0,1,1-3.18-1.11A2.38,2.38,0,0,1,406.83,375Z"></path><path d="M367.23,402a6.9,6.9,0,1,1-8.79,4.24A6.9,6.9,0,0,1,367.23,402Z"></path><path d="M355,408.77a2.38,2.38,0,1,1-3,1.46A2.37,2.37,0,0,1,355,408.77Z"></path><path d="M359.1,397.1a2.38,2.38,0,1,1-3,1.46A2.37,2.37,0,0,1,359.1,397.1Z"></path><path d="M355.27,402.31a2.37,2.37,0,1,1-3,1.46A2.37,2.37,0,0,1,355.27,402.31Z"></path><path d="M445.78,300.18a6.9,6.9,0,1,1-4.23-8.79A6.89,6.89,0,0,1,445.78,300.18Z"></path><path d="M439,288a2.37,2.37,0,1,1-1.46-3A2.38,2.38,0,0,1,439,288Z"></path><path d="M450.64,292.05a2.38,2.38,0,1,1-1.46-3A2.38,2.38,0,0,1,450.64,292.05Z"></path><path d="M445.43,288.21a2.38,2.38,0,1,1-1.46-3A2.38,2.38,0,0,1,445.43,288.21Z"></path><path d="M438.21,245a6.89,6.89,0,1,1-9.2-3.22A6.89,6.89,0,0,1,438.21,245Z"></path><path d="M424.76,241.2a2.37,2.37,0,1,1-3.17-1.11A2.38,2.38,0,0,1,424.76,241.2Z"></path><path d="M435.9,235.83a2.37,2.37,0,1,1-3.18-1.11A2.38,2.38,0,0,1,435.9,235.83Z"></path><path d="M429.5,236.8a2.37,2.37,0,1,1-3.17-1.11A2.37,2.37,0,0,1,429.5,236.8Z"></path><path d="M406,333.17a6.9,6.9,0,1,1-4.23-8.79A6.89,6.89,0,0,1,406,333.17Z"></path><path d="M399.21,321a2.38,2.38,0,1,1-1.46-3A2.38,2.38,0,0,1,399.21,321Z"></path><path d="M410.88,325a2.38,2.38,0,1,1-1.46-3A2.38,2.38,0,0,1,410.88,325Z"></path><path d="M405.67,321.21a2.38,2.38,0,1,1-1.46-3A2.39,2.39,0,0,1,405.67,321.21Z"></path><path d="M357.56,346.64a6.89,6.89,0,1,1-9.21-3.22A6.89,6.89,0,0,1,357.56,346.64Z"></path><path d="M344.11,342.83a2.37,2.37,0,1,1-3.17-1.11A2.38,2.38,0,0,1,344.11,342.83Z"></path><path d="M355.25,337.46a2.38,2.38,0,1,1-3.18-1.11A2.38,2.38,0,0,1,355.25,337.46Z"></path><path d="M348.85,338.43a2.37,2.37,0,1,1-3.17-1.11A2.37,2.37,0,0,1,348.85,338.43Z"></path><path d="M384.82,280a6.9,6.9,0,1,1-9.21-3.21A6.9,6.9,0,0,1,384.82,280Z"></path><path d="M371.37,276.22a2.38,2.38,0,1,1-3.18-1.11A2.38,2.38,0,0,1,371.37,276.22Z"></path><path d="M382.5,270.86a2.37,2.37,0,1,1-3.17-1.11A2.37,2.37,0,0,1,382.5,270.86Z"></path><path d="M376.11,271.83a2.37,2.37,0,1,1-3.17-1.11A2.38,2.38,0,0,1,376.11,271.83Z"></path><path d="M458.82,346a6.9,6.9,0,1,1-9.21-3.21A6.9,6.9,0,0,1,458.82,346Z"></path><path d="M445.37,342.22a2.38,2.38,0,1,1-3.18-1.11A2.38,2.38,0,0,1,445.37,342.22Z"></path><path d="M456.5,336.86a2.37,2.37,0,1,1-3.17-1.11A2.37,2.37,0,0,1,456.5,336.86Z"></path><path d="M450.11,337.83a2.37,2.37,0,1,1-3.17-1.11A2.38,2.38,0,0,1,450.11,337.83Z"></path><path d="M437,423.57a6.9,6.9,0,1,1,8.79-4.23A6.89,6.89,0,0,1,437,423.57Z"></path><path d="M449.23,416.75a2.38,2.38,0,1,1,3-1.46A2.37,2.37,0,0,1,449.23,416.75Z"></path><path d="M445.15,428.42a2.37,2.37,0,1,1,3-1.45A2.36,2.36,0,0,1,445.15,428.42Z"></path><path d="M449,423.22a2.38,2.38,0,1,1,3-1.46A2.38,2.38,0,0,1,449,423.22Z"></path></g><path d="M182.52,121a16.52,16.52,0,0,1-1.75-.09c-6.32-.63-10.93-7.63-16.31-16.71l-.08-.14a374.63,374.63,0,0,0-52.67-3.92c-9.21,0-18.17.41-26.65,1.21-.53.85-1.14,1.88-1.7,2.84-5.38,9.09-10,16.09-16.32,16.72a16.52,16.52,0,0,1-1.75.09c-7.34,0-17.83-4.62-22-12.07-3.24-5.82-.17-11.81,2.54-17.08,1.33-2.6,2.71-5.28,3.07-7.42.24-1.46-.75-2.68-3.84-5.62-2.33-2.23-5-4.74-6.4-8.29-2.37-5.93.41-14.33,4-19.62,3.79-5.6,8.73-8.68,13.92-8.68a19.65,19.65,0,0,1,16.87,8.92l.08.14.07.14c1.6,3.2,3.34,4.48,4.24,5a424.74,424.74,0,0,0,50.42,3.36c6.77,0,13.53-.21,20.28-.67q4.94-.33,9.85-.84c5.9-.61,12.89-1,15.78-6.81l.07-.14.08-.14a19.65,19.65,0,0,1,16.87-8.92c5.19,0,10.13,3.08,13.92,8.68,3.58,5.29,6.36,13.69,4,19.62-1.42,3.55-4.07,6.06-6.4,8.29-3.09,2.94-4.08,4.16-3.84,5.62.36,2.14,1.74,4.82,3.07,7.42,2.71,5.27,5.78,11.26,2.54,17.08C200.35,116.41,189.86,121,182.52,121Z" style="fill:#fff;stroke:#b2b2b2;stroke-linecap:round;stroke-linejoin:round"></path><path d="M204.23,68.59c2.48-6.2-4.34-21.07-13-21.07a14.33,14.33,0,0,0-12.31,6.29c-3.72,7.44-8.68,8.06-8.68,8.06l-.07.23c-35.87,5.27-68.78,2.43-93.69-.56-1.68-.63-4.92-2.48-7.55-7.73A14.33,14.33,0,0,0,56.6,47.52c-8.68,0-15.5,14.87-13,21.07s11.78,9.3,10.54,16.74-9.3,15.49-6.2,21.07,12.4,9.92,18.6,9.3c5.81-.58,12.71-15.87,15.59-19.31,31.19-3.28,62.37-.59,85.51,2.85,3.41,5.62,8.91,16,13.67,16.46,6.2.62,15.5-3.72,18.6-9.3s-5-13.63-6.2-21.07S201.75,74.79,204.23,68.59Z" style="fill:#F2D2AF"></path><path d="M71.71,87.92V72.76H68.6V71.05h8.1v1.71H73.59V87.92Z" style="fill:#fff"></path><path d="M79,84.52l-.65,3.4H76.6l3.23-16.87h2.72l3.23,16.87H83.9l-.65-3.4Zm.24-1.61H83l-1.91-9.74Z" style="fill:#fff"></path><path d="M90.12,80.59l-1,1.67v5.66H87.26V71.05h1.88v8.14l4.48-8.14h1.9l-4.26,7.69,4.41,9.18H93.74Z" style="fill:#fff"></path><path d="M103.12,78.52v1.69H99v6h5.06v1.71H97.12V71.05h6.94v1.71H99v5.76Z" style="fill:#fff"></path><path d="M115.75,87.89h-1.81l-2.8-13.42V87.92h-1.63V71.05h2.62l2.77,13.47,2.68-13.47h2.63V87.92h-1.79V74.35Z" style="fill:#fff"></path><path d="M128.14,78.52v1.69H124v6h5.06v1.71h-6.94V71.05h6.94v1.71H124v5.76Z" style="fill:#fff"></path><path d="M136.43,80.33v7.59h-1.88V71.05h1.88v7.59h4.15V71.05h1.88V87.92h-1.88V80.33Z" style="fill:#fff"></path><path d="M144.24,75.12c0-2.58,1.28-4.24,3.86-4.24S152,72.54,152,75.12v8.73c0,2.55-1.28,4.24-3.88,4.24s-3.86-1.69-3.86-4.24Zm1.86,8.82c0,1.54.65,2.44,2,2.44s2-.9,2-2.44V75c0-1.52-.63-2.44-2-2.44s-2,.92-2,2.44Z" style="fill:#fff"></path><path d="M160,87.89h-1.81l-2.79-13.42V87.92h-1.64V71.05h2.63l2.77,13.47,2.67-13.47h2.63V87.92h-1.78V74.35Z" style="fill:#fff"></path><path d="M172.37,78.52v1.69h-4.12v6h5.06v1.71h-6.94V71.05h6.94v1.71h-5.06v5.76Z" style="fill:#fff"></path></g><g id="freepik--Floor--inject-74"><line x1="13.14" y1="468.43" x2="488.57" y2="468.43" style="fill:none;stroke:#263238;stroke-linecap:round;stroke-linejoin:round"></line></g><g id="freepik--Plant--inject-74"><path d="M82,232.89s0-5.27-7.38-12.65-12.13-11.6-12.13-11.6-3.69,12.13,3.16,19.51A130.36,130.36,0,0,0,82,242.39Z" style="fill:#F2D2AF"></path><path d="M71.24,265.83s0-5.27-7.38-12.66-12.13-11.6-12.13-11.6S48,253.7,54.9,261.08a128.92,128.92,0,0,0,16.34,14.24Z" style="fill:#F2D2AF"></path><path d="M81.49,241.88s.56-5.25,8.68-11.81,13.29-10.25,13.29-10.25,2.39,12.45-5.21,19.06a129.43,129.43,0,0,1-17.76,12.44Z" style="fill:#F2D2AF"></path><path d="M68.55,280.77s1.11-5.16,9.87-10.83,14.29-8.8,14.29-8.8,1.07,12.63-7.18,18.42a129.56,129.56,0,0,1-19,10.49Z" style="fill:#F2D2AF"></path><path d="M71,323.18s0-5.28,7.39-12.66,12.13-11.6,12.13-11.6,3.69,12.13-3.17,19.51A129.58,129.58,0,0,1,71,332.67Z" style="fill:#F2D2AF"></path><path d="M70.86,333.53s.75-5.22-5.51-13.58S55,306.74,55,306.74s-5.37,11.48.36,19.77a129.8,129.8,0,0,0,14.16,16.41Z" style="fill:#F2D2AF"></path><path d="M63.58,364.2s0-5.27,7.38-12.65S83.09,340,83.09,340s3.69,12.12-3.16,19.51a129.84,129.84,0,0,1-16.35,14.23Z" style="fill:#F2D2AF"></path><path d="M68.51,392s-1.33-5.1,3.94-14.11,8.79-14.29,8.79-14.29,6.65,10.79,1.88,19.67a130,130,0,0,1-12.2,17.92Z" style="fill:#F2D2AF"></path><path d="M82.63,231.54a149.94,149.94,0,0,1-2,16.38c-2.92,15.08-10.22,24.8-13.14,38.42s5.46,31.17,3.22,48.66-9,27.22-7.11,38.89,12.16,43.29,12.16,43.29" style="fill:none;stroke:#263238;stroke-linecap:round;stroke-linejoin:round"></path><line x1="81.42" y1="245.38" x2="89.38" y2="239.28" style="fill:none;stroke:#263238;stroke-linecap:round;stroke-linejoin:round"></line><line x1="81.79" y1="238.35" x2="78.46" y2="232.43" style="fill:none;stroke:#263238;stroke-linecap:round;stroke-linejoin:round"></line><path d="M67.92,285.72s6.66-5,13.5-10" style="fill:none;stroke:#263238;stroke-linecap:round;stroke-linejoin:round"></path><path d="M71.24,275.32s-5.54-10.88-11.84-18.1" style="fill:none;stroke:#263238;stroke-linecap:round;stroke-linejoin:round"></path><path d="M71.25,330.68a82.44,82.44,0,0,1,14.24-19.06" style="fill:none;stroke:#263238;stroke-linecap:round;stroke-linejoin:round"></path><path d="M70,338.08a92.61,92.61,0,0,0-7.22-13.69c-3.88-5.74-4.44-6.48-4.44-6.48" style="fill:none;stroke:#263238;stroke-linecap:round;stroke-linejoin:round"></path><path d="M63.58,373.89a88.94,88.94,0,0,1,6-12.13,77.79,77.79,0,0,1,7.77-10.17" style="fill:none;stroke:#263238;stroke-linecap:round;stroke-linejoin:round"></path><path d="M70.92,401.2s-.78-6.32,2-11.68,5.92-12.4,7.22-15.18" style="fill:none;stroke:#263238;stroke-linecap:round;stroke-linejoin:round"></path><path d="M33.61,303.34s-.57-3.3,3.26-8.73,6.35-8.6,6.35-8.6,3.63,7.21.13,12.58a82.45,82.45,0,0,1-8.71,10.71Z" style="fill:#F2D2AF"></path><path d="M43.91,322.83s-.57-3.3,3.25-8.73,6.35-8.6,6.35-8.6,3.63,7.21.13,12.58a81.89,81.89,0,0,1-8.7,10.71Z" style="fill:#F2D2AF"></path><path d="M34.88,308.93s-.92-3.23-6.72-6.46-9.45-5-9.45-5-.15,8.06,5.34,11.39a83.2,83.2,0,0,0,12.48,5.87Z" style="fill:#F2D2AF"></path><path d="M47.22,331.91s-1.25-3.11-7.37-5.72-9.91-4-9.91-4,.7,8,6.5,10.77a82.4,82.4,0,0,0,13,4.52Z" style="fill:#F2D2AF"></path><path d="M50.3,358.77s-.58-3.31-6-7.14-8.86-6-8.86-6-1,8,4.1,11.9a82.83,82.83,0,0,0,11.8,7.15Z" style="fill:#F2D2AF"></path><path d="M51.5,365.24s-1-3.19,2-9.11,5.06-9.4,5.06-9.4,4.62,6.61,1.92,12.43A82.92,82.92,0,0,1,53.36,371Z" style="fill:#F2D2AF"></path><path d="M60.76,391.92s.39-3.34,5.59-7.47S74.86,378,74.86,378s1.45,7.93-3.42,12.1a83,83,0,0,1-11.36,7.82Z" style="fill:#F2D2AF"></path><path d="M59.39,383.69s-.57-3.31-6-7.14-8.87-5.95-8.87-5.95-1,8,4.11,11.89a83,83,0,0,0,11.79,7.15Z" style="fill:#F2D2AF"></path><path d="M59.32,401.67s.28-3.35-4-8.43-7.07-8-7.07-8-3,7.5,1,12.55a82.2,82.2,0,0,0,9.6,9.9Z" style="fill:#F2D2AF"></path><path d="M33.05,302.57a97.36,97.36,0,0,0,3,10.05c3.47,9.14,9.1,14.44,12.41,22.67s0,20.13,3.27,30.86,8.63,16.09,8.67,23.62-2.92,28.46-2.92,28.46" style="fill:none;stroke:#263238;stroke-linecap:round;stroke-linejoin:round"></path><line x1="35.31" y1="311.12" x2="29.65" y2="308.15" style="fill:none;stroke:#263238;stroke-linecap:round;stroke-linejoin:round"></line><line x1="34.31" y1="306.75" x2="35.76" y2="302.67" style="fill:none;stroke:#263238;stroke-linecap:round;stroke-linejoin:round"></line><path d="M48.16,334.94s-4.72-2.41-9.56-4.8" style="fill:none;stroke:#263238;stroke-linecap:round;stroke-linejoin:round"></path><path d="M44.94,328.79a67.7,67.7,0,0,1,5.46-12.64" style="fill:none;stroke:#263238;stroke-linecap:round;stroke-linejoin:round"></path><path d="M51,363.5a52.48,52.48,0,0,0-11-10.4" style="fill:none;stroke:#263238;stroke-linecap:round;stroke-linejoin:round"></path><path d="M52.56,368a59.87,59.87,0,0,1,3-9.37c1.82-4,2.08-4.54,2.08-4.54" style="fill:none;stroke:#263238;stroke-linecap:round;stroke-linejoin:round"></path><path d="M60.19,395.48a49,49,0,0,1,6.08-6.31,32.45,32.45,0,0,0,3.94-3.43" style="fill:none;stroke:#263238;stroke-linecap:round;stroke-linejoin:round"></path><path d="M60.44,389.77a55.54,55.54,0,0,0-5.07-7,49.69,49.69,0,0,0-6-5.54" style="fill:none;stroke:#263238;stroke-linecap:round;stroke-linejoin:round"></path><path d="M58.81,407.68a14.39,14.39,0,0,0-2.52-7.1c-2.32-3.07-5.06-7.13-6.17-8.73" style="fill:none;stroke:#263238;stroke-linecap:round;stroke-linejoin:round"></path><path d="M80.53,468.43H49.71A2.42,2.42,0,0,1,47.29,466l-7.65-47.48h51L83,466A2.42,2.42,0,0,1,80.53,468.43Z" style="fill:#263238;stroke:#263238;stroke-linecap:round;stroke-linejoin:round"></path><path d="M90.15,425.18H39.64a4,4,0,0,1-4-4h0a4,4,0,0,1,4-4H90.15a4,4,0,0,1,4,4h0A4,4,0,0,1,90.15,425.18Z" style="fill:#263238;stroke:#263238;stroke-linecap:round;stroke-linejoin:round"></path><line x1="41.65" y1="425.35" x2="78.32" y2="425.35" style="fill:none;stroke:#fff;stroke-linecap:round;stroke-linejoin:round"></line><line x1="81.78" y1="425.35" x2="87.82" y2="425.35" style="fill:none;stroke:#fff;stroke-linecap:round;stroke-linejoin:round"></line></g><g id="freepik--character-2--inject-74"><path d="M390,439s-4.35,7.25-10.88,11.6-12.33,7.26-14.15,7.62-7.25.73-5.8,5.08,6.16,5.44,11.61,5.08,50.05,0,50.05,0a20.54,20.54,0,0,0,.73-8c-.37-5.08-5.44-17.78-5.44-17.78Z" style="fill:#F2D2AF;stroke:#263238;stroke-linecap:round;stroke-linejoin:round"></path><path d="M361.21,165.2s-8.56,24.54-8,27.4,13,36.58,13,36.58l-5.32,5.3,1.15,6.31s-2.85,2.28-1.14,5.14,9.13,1.14,9.13,1.14,7.7-30.5,7.7-32.22-.57-49.08-.57-49.08Z" style="fill:#fff;stroke:#263238;stroke-linecap:round;stroke-linejoin:round"></path><path d="M363.86,231.14s1.45,58.4,3.63,71.82,5.8,57,8.71,71.1S390,429.19,390,429.19a9.61,9.61,0,0,0-2.18,5.44,66.83,66.83,0,0,0,1.09,8.71s5.44,2.54,16.32,1.81,13,.15,13,.15.76-8.13-.69-11-5.44-6.17-5.44-12.33-6.17-46.79-6.17-49V347.58s17.05,63.84,17.41,66-4,4.71-4.35,8,3.63,20.31,3.63,20.31,6.52,2.54,11.6,2.54,16.68-1.82,16.68-1.82-4.34-19.22-4.34-23.57.36-31.2-.73-42.44-8-39.18-8-42.44-2.54-58-2.54-60.94,2.9-15.23,3.27-24.3a146.64,146.64,0,0,0-.37-17l-72.54-4.72Z" style="fill:#263238;stroke:#263238;stroke-linecap:round;stroke-linejoin:round"></path><path d="M380.23,122.1s-5.22,3.58-6.87,8.8-16.24,38.79-16.24,38.79l8.53,6.33-6,55a9,9,0,0,0,6.88,2.75c4.67,0,14.3,4.4,33.56,4.68s29.16,1.37,32.74.27,4.12-.82,7.42-2.75.28-8.25-1.1-14-.27-61.07-3-72.9-9.08-30.81-18.71-36.31a38,38,0,0,0-20.63-5C394.26,107.8,380.23,122.1,380.23,122.1Z" style="fill:#F2D2AF;stroke:#263238;stroke-linecap:round;stroke-linejoin:round"></path><ellipse cx="391.82" cy="160.23" rx="6.6" ry="8.67" style="fill:#263238"></ellipse><path d="M388,148.27a2.2,2.2,0,1,0-2.2,2.2A2.19,2.19,0,0,0,388,148.27Z" style="fill:#263238"></path><path d="M390.72,146.89a2.2,2.2,0,1,0-2.2-2.2A2.19,2.19,0,0,0,390.72,146.89Z" style="fill:#263238"></path><path d="M396,149.92a2.2,2.2,0,1,0-2.2-2.2A2.21,2.21,0,0,0,396,149.92Z" style="fill:#263238"></path><line x1="365.65" y1="176.02" x2="372.38" y2="137.17" style="fill:none;stroke:#263238;stroke-linecap:round;stroke-linejoin:round"></line><polygon points="366.8 168.88 359.3 164.34 357.13 169.69 365.61 177.18 366.8 168.88" style="fill:#263238"></polygon><path d="M408.17,109a37.62,37.62,0,0,0-9.64-1.22c-1.49.47-3,1-4.51,1.55-4.88,3.69-13.79,12.77-13.79,12.77a18.56,18.56,0,0,0-1.63,1.32c-.82,2.4-2.79,8.49-2.79,11.56,0,3.88,5.32,2.18,8.71-2.18s10.41-15.49,16.71-18.88C404.71,112,407.08,110.39,408.17,109Z" style="fill:#263238"></path><path d="M338.14,79.46s0,12.93,1.65,14.31,4.13,1.37,4.13,3.57-2.48,6-2.48,7.43,1.38,2.2,3.86,2.47a38.09,38.09,0,0,0,3.85.28s5.22,9.63,6.87,13.2,4.13,4.13,9.08,2.76,7.15-3.58,7.15-3.58,6.61,1.93,6.61,4.95-3,10.18.27,8.8,6.33-5.5,13.21-14,11-10.72,11-10.72-8.25-5.51-11-9.08-3.3-3.58-3.85-8-.83-17.06-6.88-20.08-23.94-5-29.44-3.85S341.72,77,340.89,77.53,338.14,79.46,338.14,79.46Z" style="fill:#fff;stroke:#263238;stroke-linecap:round;stroke-linejoin:round"></path><path d="M350.9,95.41c.7,1,.91,2,.47,2.36s-1.35-.26-2.05-1.25-.91-2-.47-2.36S350.2,94.42,350.9,95.41Z" style="fill:#263238"></path><path d="M351.9,111.65s6.32-2.48,8.53-5,1.92-4.12,1.92-4.12" style="fill:none;stroke:#263238;stroke-linecap:round;stroke-linejoin:round"></path><line x1="360.7" y1="102.84" x2="364.83" y2="102.84" style="fill:none;stroke:#263238;stroke-linecap:round;stroke-linejoin:round"></line><path d="M355.44,93.69c1.72,3.38,1,7.21-1.63,8.53s-6.13-.34-7.85-3.73-1-7.21,1.63-8.54S353.72,90.3,355.44,93.69Z" style="fill:none;stroke:#263238;stroke-linecap:round;stroke-linejoin:round"></path><path d="M342.54,89.91a7.07,7.07,0,0,1,6.61-2.75" style="fill:none;stroke:#263238;stroke-linecap:round;stroke-linejoin:round"></path><line x1="355.44" y1="93.69" x2="370.05" y2="86.61" style="fill:none;stroke:#263238;stroke-linecap:round;stroke-linejoin:round"></line><path d="M372.25,119.9a92.8,92.8,0,0,0,6.31-13.25l0,16.77Z" style="fill:#263238;stroke:#263238;stroke-linecap:round;stroke-linejoin:round"></path><path d="M352.72,52.78S342,44.52,333.47,48.92s-9.91,14.86-5,15.41,6.33,1.38,6.33,1.38-8.8,1.1-11.28,6.87S328.51,88.81,334,86.34s5.77-5.23,5.77-5.23,5.51-4.13,7.71-6,5.77-3.85,7.15-2.48-3.58,8.53-1.93,11.56,4.4,3,7.43,2.75,4.68-.28,5.5,1.65,3,3.57,4.68,3,6.05-1.37,7.15,1.1,0,6.61,2.2,7.71,11.83,1.65,12.66-.55,4.67-24.21,1.37-35.21-18.15-16.79-25-17.06S353.55,49.2,352.72,52.78Z" style="fill:#263238;stroke:#263238;stroke-linecap:round;stroke-linejoin:round"></path><path d="M369.56,93.55c0-1.65,2.28-11.56,8.06-11.84s4.67,15.68,3.57,17.88-3.85.83-3.85.83" style="fill:#fff;stroke:#263238;stroke-linecap:round;stroke-linejoin:round"></path><path d="M385.63,445.52l10.52,4s5.8-12,0-14.51-10.16-.73-10.52,1.81A65.15,65.15,0,0,0,385.63,445.52Z" style="fill:#fff;stroke:#263238;stroke-linecap:round;stroke-linejoin:round"></path><path d="M385.85,445.52s8.3,1.3,11.67,4.68" style="fill:none;stroke:#263238;stroke-linecap:round;stroke-linejoin:round;stroke-width:2px"></path><path d="M381.63,448.33s8.3,1.31,11.68,4.68" style="fill:none;stroke:#263238;stroke-linecap:round;stroke-linejoin:round;stroke-width:2px"></path><path d="M377.42,451.14s8.29,1.31,11.67,4.68" style="fill:none;stroke:#263238;stroke-linecap:round;stroke-linejoin:round;stroke-width:2px"></path><path d="M420.81,468.37a20.54,20.54,0,0,0,.73-8,16.79,16.79,0,0,0-.3-2c-20.69,4.94-47.58,4.94-47.58,4.94a36.29,36.29,0,0,0-2.9-4c-.82-1-2.46-1.45-4.13-1.66a10,10,0,0,1-1.68.57c-1.81.36-7.25.73-5.8,5.08s6.16,5.44,11.61,5.08S420.81,468.37,420.81,468.37Z" style="fill:#fff;stroke:#263238;stroke-linecap:round;stroke-linejoin:round"></path><path d="M424.79,439s-4.35,7.25-10.88,11.6-12.33,7.26-14.15,7.62-7.25.73-5.8,5.08,6.17,5.44,11.61,5.08,50.05,0,50.05,0a20.54,20.54,0,0,0,.73-8c-.36-5.08-5.44-17.78-5.44-17.78Z" style="fill:#F2D2AF;stroke:#263238;stroke-linecap:round;stroke-linejoin:round"></path><path d="M420.44,445.52l10.52,4s5.8-12,0-14.51-10.16-.73-10.52,1.81A67,67,0,0,0,420.44,445.52Z" style="fill:#fff;stroke:#263238;stroke-linecap:round;stroke-linejoin:round"></path><path d="M455.62,468.37a20.54,20.54,0,0,0,.73-8,16.79,16.79,0,0,0-.3-2c-20.69,4.94-47.58,4.94-47.58,4.94a36.29,36.29,0,0,0-2.9-4c-.82-1-2.45-1.45-4.13-1.66a10,10,0,0,1-1.68.57c-1.81.36-7.25.73-5.8,5.08s6.17,5.44,11.61,5.08S455.62,468.37,455.62,468.37Z" style="fill:#fff;stroke:#263238;stroke-linecap:round;stroke-linejoin:round"></path><path d="M464.85,191.44c-.57-4.5-22.21-38.77-22.21-38.77l-16.71,16.61,12.48,22.16-24.75,42.21c-.25.2-6.78,5.32-7.49,5.56s-.73,3.87-.49,4.84.25,10.19.25,10.19,2.66,1.94,4.12,1.94,6.55,0,8.49-.24,4.36-3.4,4.36-5.34-2.42-7.76-2.42-7.76l.72-2.74C432.47,229,465.31,195.19,464.85,191.44Z" style="fill:#fff;stroke:#263238;stroke-linecap:round;stroke-linejoin:round"></path><line x1="438.41" y1="191.44" x2="442.55" y2="197.79" style="fill:#fff;stroke:#263238;stroke-linecap:round;stroke-linejoin:round"></line><polygon points="445.92 156.68 431.08 177.8 425.93 169.28 445.92 156.68" style="fill:#263238"></polygon><path d="M421.2,240.1s.24,8.08-1.94,9.53-3.88,2.18-5.57,2.18" style="fill:#fff;stroke:#263238;stroke-linecap:round;stroke-linejoin:round"></path><path d="M401,139.28l21.38,38.06,26.72-24.79s-28.3-46.09-37.53-41.92" style="fill:#F2D2AF;stroke:#263238;stroke-linecap:round;stroke-linejoin:round"></path><polygon points="418.03 170.22 445.62 146.21 449.11 152.55 422.39 177.34 418.03 170.22" style="fill:#263238"></polygon><path d="M420.44,445.52s8.3,1.3,11.67,4.68" style="fill:none;stroke:#263238;stroke-linecap:round;stroke-linejoin:round;stroke-width:2px"></path><path d="M416.22,448.33s8.3,1.31,11.67,4.68" style="fill:none;stroke:#263238;stroke-linecap:round;stroke-linejoin:round;stroke-width:2px"></path><path d="M412,451.14s8.3,1.31,11.68,4.68" style="fill:none;stroke:#263238;stroke-linecap:round;stroke-linejoin:round;stroke-width:2px"></path></g><g id="freepik--character-1--inject-74"><polygon points="337.19 460.73 310.7 460.73 305.55 452.12 342.33 452.12 337.19 460.73" style="fill:#fff;stroke:#828282;stroke-linecap:round;stroke-linejoin:round"></polygon><path d="M342.53,452.9H305.36a1.37,1.37,0,0,1-1.37-1.37h0a1.37,1.37,0,0,1,1.37-1.37h37.17a1.37,1.37,0,0,1,1.37,1.37h0A1.37,1.37,0,0,1,342.53,452.9Z" style="fill:#fff;stroke:#828282;stroke-linecap:round;stroke-linejoin:round"></path><path d="M165,258s-6.32,12.81-8.69,13.21-12.15-4.86-19.46-1.26-8.54,16.79-7.16,21.21,1.65,10.68-1.29,11.7-9.58-.49-11.16,4.36,1.79,14,10.27,16.88,17.91-14.21,24.7-16,8.22,10.7,14.42,8.94,13.68-22.08,8.22-31.1-2.3-25.88-.06-29.56S169,253.94,165,258Z" style="fill:#263238;stroke:#263238;stroke-linecap:round;stroke-linejoin:round"></path><path d="M168.93,378.15s26.4-4.11,39.8,1.89,20.32,14.36,20.55,19.73a21,21,0,0,1-6.52,15.2c-4,3.76-25.77,11.85-34,14.59s-15.28,5.73-15.28,5.73L163.29,420.8l9.44-9.66-24-2s-14.33-14-10.59-24.33S164.92,375,168.93,378.15Z" style="fill:#F2D2AF;stroke:#263238;stroke-linecap:round;stroke-linejoin:round"></path><path d="M159.68,406.58s22.57,4.54,31.88,4.54a181.44,181.44,0,0,0,20.55-1.26" style="fill:none;stroke:#263238;stroke-linecap:round;stroke-linejoin:round;stroke-width:0.5px;stroke-dasharray:1"></path><path d="M160.58,404.59s27.19,4.56,36.49,4.77a124.31,124.31,0,0,0,19.3-1" style="fill:none;stroke:#263238;stroke-linecap:round;stroke-linejoin:round"></path><path d="M123.15,431.76s-5.61,1.44-5,9.47c.43,5.36,2.33,12.74,2.57,18.41s2.5,9.44,7.32,10.43,10.8,1.33,15.17-1.24.16-3.29-2.34-5.87-1.14-12.79-1.14-12.79,5.84,3.93,8.49,10.08,9.66,9.45,16.29,10.95,10.24,2,13.5,1.52-.44-10.43-10-17.49-33.43-20.67-37.43-23.49A6.23,6.23,0,0,0,123.15,431.76Z" style="fill:#F2D2AF;stroke:#263238;stroke-linecap:round;stroke-linejoin:round"></path><path d="M123.15,431.76s-5.61,1.44-5,9.47c.43,5.36,2.33,12.74,2.57,18.41s2.5,9.44,7.32,10.43,10.8,1.33,15.17-1.24.16-3.29-2.34-5.87-1.14-12.79-1.14-12.79.34.23.88.65c.08-3,2.54-6.34,2.54-6.34L142,438.74c-5.43-3.26-9.87-5.92-11.4-7A6.23,6.23,0,0,0,123.15,431.76Z" style="fill:#263238;stroke:#263238;stroke-linecap:round;stroke-linejoin:round"></path><path d="M143.24,468.83c1.66-1,2.08-1.69,1.83-2.33a27.24,27.24,0,0,1-9.42,2.3c-6.42.27-10.71,0-10.88-3.82s-3.31-17.43-3.55-23a11.82,11.82,0,0,1,3.06-8.7l1.16-2.6a6.44,6.44,0,0,0-2.29,1.07s-5.61,1.44-5,9.47c.43,5.36,2.33,12.74,2.57,18.41s2.5,9.44,7.32,10.43S138.87,471.4,143.24,468.83Z" style="fill:#b2b2b2;stroke:#263238;stroke-linecap:round;stroke-linejoin:round"></path><path d="M166.8,391.09l-9.37,18.31s1.9,2.61,3.47,4.33,28.31,26.86,32.81,34.13,4.6,16.83-.94,20.05-13.44,6.84-20.44,3.86-11.69-8.16-17.26-12.7-33.78-26.32-39.56-31.46c-9.31-8.26-18.6-15.93-22-25.93a33.11,33.11,0,0,1-1.08-18.17s2.9-9.08,10.78-13.3,34.72,1.8,40.18,4,7.26,2.08,7.26,2.08" style="fill:#F2D2AF;stroke:#263238;stroke-linecap:round;stroke-linejoin:round"></path><path d="M169.49,464.43c-4.07-3.74-58-50.41-63.1-56.06s-3-14.07-3-14.07" style="fill:none;stroke:#263238;stroke-linecap:round;stroke-linejoin:round"></path><path d="M167.58,465.49l-.37-.33" style="fill:none;stroke:#263238;stroke-linecap:round;stroke-linejoin:round;stroke-width:0.5px"></path><path d="M166.48,464.5c-8.75-7.75-57.15-49.73-62-55.07-4.08-4.49-3.61-10.71-3.24-13.09" style="fill:none;stroke:#263238;stroke-linecap:round;stroke-linejoin:round;stroke-width:0.5px;stroke-dasharray:0.9933609962463379,0.9933609962463379"></path><path d="M101.33,395.84a4.32,4.32,0,0,1,.1-.48" style="fill:none;stroke:#263238;stroke-linecap:round;stroke-linejoin:round;stroke-width:0.5px"></path><path d="M131.62,401.89c7.21.39,16.09,1.68,20.26,5.52" style="fill:none;stroke:#263238;stroke-linecap:round;stroke-linejoin:round"></path><path d="M120.8,401.88s2.39-.15,5.89-.13" style="fill:none;stroke:#263238;stroke-linecap:round;stroke-linejoin:round"></path><path d="M172.73,411.14s20.37,3.15,30.12.64" style="fill:none;stroke:#263238;stroke-linecap:round;stroke-linejoin:round"></path><path d="M196.2,306.44s2.83,1.21,6.07,6.88,15.38,30.37,15.38,30.37l35.23,8.9v6.48s-25.51,4.86-33.2,6.08-22.67.81-28.75,0a19.27,19.27,0,0,1-10.12-4.86l7.69-53.45Z" style="fill:#fff;stroke:#263238;stroke-linecap:round;stroke-linejoin:round"></path><path d="M172,310s-3.7-9.7-14.52-11.33-18.79.5-25.5,11.24-8.32,29-9.44,30.56S102,362.2,96.16,373.2s-3.61,13.29-3.61,13.29,9.37,15,36.07,12.49a74,74,0,0,0,37.59-14.74,109.91,109.91,0,0,0,10.35-9.4s5.19-11.27,11-14.8,12.61-12.48,11.91-21.71,1.19-14.08-2.13-22S176,304.7,175.06,304.74,172,310,172,310Z" style="fill:#fff;stroke:#263238;stroke-linecap:round;stroke-linejoin:round"></path><path d="M161.91,381.44s-17.92,7-30.8,6.09" style="fill:none;stroke:#263238;stroke-linecap:round;stroke-linejoin:round"></path><path d="M135.58,378.73c7.13,1.1,16.55,1.83,22.91-.43" style="fill:none;stroke:#263238;stroke-linecap:round;stroke-linejoin:round"></path><path d="M125.58,376.72s2,.52,5,1.12" style="fill:none;stroke:#263238;stroke-linecap:round;stroke-linejoin:round"></path><polygon points="175.48 306.88 169.75 363.32 188.86 363.55 186.13 313.79 175.48 306.88" style="fill:#F2D2AF;stroke:#263238;stroke-linecap:round;stroke-linejoin:round"></polygon><path d="M206.32,273.24s-1.62,11.74,1.62,16.19,7.69,11.34,5.67,17.41-9.43,9.93-7,14.59,4,9.61,2,12.49-7.59,3.29-7.59,3.29,3.65-8.91-.4-13.77-10.47-15.56-7.06-21.54a29.65,29.65,0,0,0,3.82-11.25" style="fill:#263238;stroke:#263238;stroke-linecap:round;stroke-linejoin:round"></path><path d="M200.86,295.88s-.67,15.62-5.13,18.95-19.77-.66-22.58-7.89,4-16.91,6.06-17.39,13.38,7.29,16,6.6A16.71,16.71,0,0,1,200.86,295.88Z" style="fill:#F2D2AF;stroke:#263238;stroke-linecap:round;stroke-linejoin:round"></path><path d="M208.69,258.29s-2.13,12.67-1.12,16.11.78,10.26-2.27,15.6-9.1,11.2-11.71,11.9-5.33,1.1-12.54-3.46-16.41-19.24-19.46-23.81,4-18.52,7.69-24.74,5-6.09,13.69-5.94,17.91,3.29,20.51,4.2S209,250.82,208.69,258.29Z" style="fill:#b2b2b2;stroke:#263238;stroke-linecap:round;stroke-linejoin:round"></path><path d="M199.21,269.33s-1.66,4.8-1.12,6.19,3.11,3.91,0,6.7-6.92-.51-7.25-1.35" style="fill:none;stroke:#263238;stroke-linecap:round;stroke-linejoin:round"></path><path d="M185.47,284.25s5.11,4.1,9.11,2.87" style="fill:none;stroke:#263238;stroke-linecap:round;stroke-linejoin:round"></path><path d="M180.59,274.94s5.17-2.32,7.88-1.13" style="fill:none;stroke:#263238;stroke-linecap:round;stroke-linejoin:round;stroke-width:2px"></path><path d="M200.18,271.83s2.73-2,4.77-.89" style="fill:none;stroke:#263238;stroke-linecap:round;stroke-linejoin:round;stroke-width:2px"></path><path d="M178.69,270.88s3.54-4.89,9.37-5.55" style="fill:none;stroke:#263238;stroke-linecap:round;stroke-linejoin:round;stroke-width:2px"></path><path d="M200.34,261.53s4.42,1.48,5.11,4.1" style="fill:none;stroke:#263238;stroke-linecap:round;stroke-linejoin:round;stroke-width:2px"></path><path d="M173.61,253.65l.89,10.54a49.91,49.91,0,0,0,23.94-1c12.28-3.8,15.19-6.2,15.19-6.2s-5.36-17.12-8.67-23.2-9.75-10.3-20.27-11-24.43,4.67-30.55,12.8-9.6,16.52-9.73,23.61.81,28.48,3.5,35.44,14,8,13.72,12.28-11,15.45-7,22.25,22.58,2.12,23.27,4.74-3,7.22,2.05,5.28,7.19-9.51,3.29-12.15-9-5.14-8.46-7,9.67-13,7.79-18.7-14-23.69-15.66-27.2,1.95-6.52,3.87-9.82S173.61,253.65,173.61,253.65Z" style="fill:#263238;stroke:#263238;stroke-linecap:round;stroke-linejoin:round"></path><path d="M333.84,458.89c-.68-2.73-3.64-11.59-3.87-12.27s-1.13-15.45-2.72-19.54-3.86-9.09-3.86-9.09l2.95,1.82s-7.5-9.77-9.77-12.95-7.95-14.32-16.13-22.27-17.95-19.54-25.22-25.45a64.39,64.39,0,0,1-12.5-14.54l3.63-.68-4.54-5.23,4.77.69-2.72-5.46,7.49,2.28-2.5-7.5L263.63,323l5.68,2.5L262,317.11l-2.27-3.86,6.13,2s-3.41-4.77-3.41-5.45a50.77,50.77,0,0,0-1.82-5.45l1.6.68v-3s3-7.27,3-11.13.23-6.36.45-9.54-4.54-3.87-7.72-2.27-7.27,6.36-8.41,7l-1.13.68-1.82-.45-.68,3.4-1.82-2-.68,4.09s-9.55-3.86-17.95-1.14v-5.22l-1.14,1.13A41.37,41.37,0,0,0,213.87,278c-6.14-3.41-10.68,2.27-10.68,8a33.81,33.81,0,0,0,4.09,14.54,4.31,4.31,0,0,0,2.5,1.82l-3.64,1.59,3,1.14-2,2.72,3.41-.22L208,313.7l1.59-.45s-2.5,7.27-3,8.18S200.92,333,200.92,333s3.41-3.63,3.41-2.95-.69,5.68-.69,5.68l5-1.82-.68,2.5,1.82-.68-1.14,3.18,3.41.23-.45,1.59,2.5,1.59s2.5,3.18,2.5,5.68c0,1.87-3.68,7.29-5.54,9.91L210,359.37l3.18-.91s-5,8.41-5.46,10.68a34.37,34.37,0,0,0-.45,5.45l2-2.49s-.68,6.13-.68,8.63,1.37,9.32,1.37,10.91,2.72.22,2.72.22,3.64,10.23,4.77,12.05a20.61,20.61,0,0,0,3.19,3.63s1.13,12.27,1.81,18.4-3.41,27.27-4.09,30-3.63,6.13-5,6.81-7-1.13-9.31,1.82-.91,4.55,0,5,15.22,0,16.36,0H253a25.27,25.27,0,0,0,5.23-.68s40.21-.46,41.58-.46,23.63-.22,25.44-.45l7.5-.91-.68-7.5S334.52,461.62,333.84,458.89ZM248.18,447.3l-10.91,3.87,9.54-1.59s-2,.9-7.95,3.4-10.22,5-10.22,4.32a42.92,42.92,0,0,1,2.72-9.77c2-5.45,5.68-26.13,5.68-26.13a16.5,16.5,0,0,0,2.05,2.05c.91.68,10.68,5.68,10.68,5.68Z" style="fill:#F2D2AF"></path><path d="M273.63,399.82l2.19,5.47L280,411.9v-3.31l5.77,7.84s2.07.83,2.07,2.07l4.52,1.5s-13.74,4-17.72,12-2.78,10.12-2.78,10.12l2.27-1.82a16,16,0,0,0,.06,6.76c.89,3.11,5.62,8.24,5.62,8.24l8.12,4.61-8,4.43-2.66,4.43-19.06.16S252,463.42,252,458.1s2.22-11.08,3.1-20.38,8.42-21.26,11.08-26.14,1.33-12.4,1.33-12.4Z" style="fill:#fff"></path><path d="M258.5,323.2C255.2,318.66,247,318.66,247,315s-.83-10.73-5-15.27-9.07,2.89-11.55,4.54-4.54-4.54-6.6-4.54-5,3.71-5,3.71l-1.9,7.19-5.31,9.3s-1.33,4.87-2.66,6.2c-1,.95-2.79,6.15-3.77,9.08l3.39-1.24-.68,2.5,1.82-.68-1.14,3.18,3.41.23-.45,1.59,2.5,1.59s2.5,3.18,2.5,5.68c0,1.87-3.68,7.29-5.54,9.91L210,359.37l3.18-.91s-5,8.41-5.46,10.68a34.37,34.37,0,0,0-.45,5.45l2-2.49s-.68,6.13-.68,8.63,1.37,9.32,1.37,10.91,2.72.22,2.72.22,3.64,10.23,4.77,12.05a20.61,20.61,0,0,0,3.19,3.63s1.13,12.27,1.81,18.4a44.41,44.41,0,0,1-.45,8.62,2,2,0,0,0,1.15-.38c6.2-4.43,8.41-10.19,8.41-11.52s1.78-4.87,1.78-4.87,12.84,8.86,14.17,8.86,1.77-3.11,1.77-3.11L248,410.25l1-3.72s-.41-1.24-.83-2.47a23.73,23.73,0,0,1-.41-5.37,2.44,2.44,0,0,1,.41-1.65v-6.18s2.48,2.47,3.72,1.23,0-5.77-.83-9.9,4.54,3.3,5.36,2.48-9.75-16.94-9.75-16.94,4.43-1.78,4.43-4S244.39,347.9,244.9,346s6.65-4.43,9.75-2.22.89-4.87-.44-5.76,1.77-2.65,1.77-2.65l-2.66-4.88,7.53-1.33Z" style="fill:#fff"></path><path d="M217.44,315s2.66-3.55,6.64,0" style="fill:none;stroke:#263238;stroke-linecap:round;stroke-linejoin:round;stroke-width:2px"></path><path d="M232.5,317.22a5.52,5.52,0,0,1,8,2.22" style="fill:none;stroke:#263238;stroke-linecap:round;stroke-linejoin:round;stroke-width:2px"></path><g style="opacity:0.5"><path d="M206.6,295.75s2,5.23,3.41,5.68,2.5-.23,3.63-.45.46-.91.46-.91L212.73,298s2.73.46,3.41.46.91-4.09.91-4.09l1.14.91,1.13-3.64,1.59.68.46-2.72,2,1.36a8.56,8.56,0,0,0-.45-3.64c-.64-1.69-4.64-6.16-5.17-6.74a33.61,33.61,0,0,0-3.92-2.57c-6.14-3.41-10.68,2.27-10.68,8a28.2,28.2,0,0,0,1.21,7.45A21.63,21.63,0,0,0,206.6,295.75Z" style="fill:#fff"></path><path d="M262.49,293.25c.23-6.59.39-9.17.91-10.45a11.4,11.4,0,0,0,1-3.76,6.14,6.14,0,0,0-3.87-.64l-6.43,5.54s-4.32,3.63-5.23,5.45a15,15,0,0,0-.91,5.23l2.73-.69-1.14,3.41,3-.91-.68,3.18,2.73.69-.68,1.59a2,2,0,0,0,3.18,0C258.63,300.07,262.27,299.84,262.49,293.25Z" style="fill:#fff"></path></g><path d="M248.79,290.79l-.84,3.83,2.5,1.14v2.9h3.31l.1,3.23s5.3-.12,7.77-4.47" style="fill:none;stroke:#263238;stroke-linecap:round;stroke-linejoin:round"></path><polyline points="223.41 290.98 219.32 291.66 218.19 295.3 215.79 295.83 216.47 299.9 212.73 298.02 211.5 301.15" style="fill:none;stroke:#263238;stroke-linecap:round;stroke-linejoin:round"></polyline><path d="M333.84,458.89c-.68-2.73-3.64-11.59-3.87-12.27s-1.13-15.45-2.72-19.54-3.86-9.09-3.86-9.09l2.95,1.82s-7.5-9.77-9.77-12.95-7.95-14.32-16.13-22.27-17.95-19.54-25.22-25.45a64.39,64.39,0,0,1-12.5-14.54l3.63-.68-4.54-5.23,4.77.69-2.72-5.46,7.49,2.28-2.5-7.5L263.63,323l5.68,2.5L262,317.11l-2.27-3.86,6.13,2s-3.41-4.77-3.41-5.45a50.77,50.77,0,0,0-1.82-5.45l1.6.68v-3s3-7.27,3-11.13.23-6.36.45-9.54-4.54-3.87-7.72-2.27-7.27,6.36-8.41,7l-1.13.68-1.82-.45-.68,3.4-1.82-2-.68,4.09s-9.55-3.86-17.95-1.14v-5.22l-1.14,1.13A41.37,41.37,0,0,0,213.87,278c-6.14-3.41-10.68,2.27-10.68,8a33.81,33.81,0,0,0,4.09,14.54,4.31,4.31,0,0,0,2.5,1.82l-3.64,1.59,3,1.14-2,2.72,3.41-.22L208,313.7l1.59-.45s-2.5,7.27-3,8.18S200.92,333,200.92,333s3.41-3.63,3.41-2.95-.69,5.68-.69,5.68l5-1.82-.68,2.5,1.82-.68-1.14,3.18,3.41.23-.45,1.59,2.5,1.59s2.5,3.18,2.5,5.68c0,1.87-3.68,7.29-5.54,9.91L210,359.37l3.18-.91s-5,8.41-5.46,10.68a34.37,34.37,0,0,0-.45,5.45l2-2.49s-.68,6.13-.68,8.63,1.37,9.32,1.37,10.91,2.72.22,2.72.22,3.64,10.23,4.77,12.05a20.61,20.61,0,0,0,3.19,3.63s1.13,12.27,1.81,18.4-3.41,27.27-4.09,30-3.63,6.13-5,6.81-7-1.13-9.31,1.82-.91,4.55,0,5,15.22,0,16.36,0H253a25.27,25.27,0,0,0,5.23-.68s40.21-.46,41.58-.46,23.63-.22,25.44-.45l7.5-.91-.68-7.5S334.52,461.62,333.84,458.89ZM248.18,447.3l-10.91,3.87,9.54-1.59s-2,.9-7.95,3.4-10.22,5-10.22,4.32a42.92,42.92,0,0,1,2.72-9.77c2-5.45,5.68-26.13,5.68-26.13a16.5,16.5,0,0,0,2.05,2.05c.91.68,10.68,5.68,10.68,5.68Z" style="fill:none;stroke:#263238;stroke-linecap:round;stroke-linejoin:round"></path><path d="M265.45,385.27s.45,4.32,2.72,6.82a16.44,16.44,0,0,0,4.77,3.64L269.31,398l4.32,1.82-2.73,5.45,2.73.68s-3.64,7.5-5,10-3.41,7-4.32,8.86-2.27,11.13-3.18,15.9a102,102,0,0,0-1.14,12.5l-2-.45-.23,2.5-1.14.22v8.86a32.36,32.36,0,0,1-.45,5l-23.63.23a11.31,11.31,0,0,1,2.27-5.68c2-2.5,8.64-2.05,8.64-2.05l4.77-15.45,1.59-17.26s-.46-12.05-.46-16.14-4.09-7.72-7.49-13.63-3.87-9.54-3.87-9.54l-.91,5-1.36-7.5.81-7.63,4-4.88,9.75-8.86" style="fill:#F2D2AF;stroke:#263238;stroke-linecap:round;stroke-linejoin:round"></path><path d="M301.57,422.76s-10.45-5.68-19.31.69-10.45,18.63-10.45,18.63,2.27-2.5,2.27-1.82-.23,7,.68,8.41,3.18,3.86,3.41,4.54,1.82,3.18,1.59,2.05a21.47,21.47,0,0,1-.23-3.19s3.64,5.46,4.77,5.91,5,3,5.69,3h1.36s-6.82.45-9.77,2.72-2.5,4.77-2.5,4.77" style="fill:none;stroke:#263238;stroke-linecap:round;stroke-linejoin:round"></path><path d="M291.35,460.94a40.32,40.32,0,0,0,19.84,1.35" style="fill:none;stroke:#263238;stroke-linecap:round;stroke-linejoin:round"></path><path d="M228.64,457.3s-3.87,10-5,10.68-3.18,1.59-3.18,1.59" style="fill:none;stroke:#263238;stroke-linecap:round;stroke-linejoin:round"></path><path d="M237,421.4l-5.9-7.27-1.37,2.95s-3.18-5.22-3.63-5.9a24.89,24.89,0,0,0-2.5-2.5l.23,2.95-1.59-3.86" style="fill:none;stroke:#263238;stroke-linecap:round;stroke-linejoin:round"></path><path d="M228,328.7s-3.19-3.41-6.59-1.82-1.14,5.45.68,6.59,2.95.68,4.32-.46S227.5,329.38,228,328.7Z" style="fill:#4a4a4a;stroke:#263238;stroke-linecap:round;stroke-linejoin:round"></path><path d="M217.05,319.84s1.59,2.5,1.36,4.09-2,5-1.59,7.49,4.32,6.37,8.86,6.14,8.64-1.14,10.46-7.27" style="fill:none;stroke:#263238;stroke-linecap:round;stroke-linejoin:round"></path><path d="M220.54,336.4a10.73,10.73,0,0,0,5,3.71c2.89.83,5.78-3.3,5.78-3.3" style="fill:none;stroke:#263238;stroke-linecap:round;stroke-linejoin:round"></path><path d="M244,342.15l-2.4,2s-10.36,39-11.13,42.11,5.62,5.77,8.74,6.44,10.12-.86,10.5-9.26S244,342.15,244,342.15Zm-.91,48.36c-2.16,1.48-2.92-.4-5-1.8s4.62-37.41,4.62-37.41-1,16.79.64,23.18S245.29,389,243.12,390.51Z" style="fill:#263238;stroke:#263238;stroke-linecap:round;stroke-linejoin:round"></path><path d="M143.15,303.81a51.41,51.41,0,0,0-4.76,26.07c1.11,15.28,15.62,57.74,21.6,57.71s65-30.53,65-30.53,13.22-1.8,16.94-4.91S246.29,341,246.29,341s-.49-2.42-2.63-1.32a24.46,24.46,0,0,1-8.8,3.19s6.43-3.59,4.4-4.88-8.45,2-12.73,4.21-7.11,5.35-9.3,7.64-16.69,5.82-26,6.6a195.33,195.33,0,0,1-20.92.26s-.89-26.62-1.89-37.72-10.89-18.45-15.94-19" style="fill:#fff;stroke:#263238;stroke-linecap:round;stroke-linejoin:round"></path><path d="M170.33,356.7s-4.79,6.95-5.26,10.81" style="fill:none;stroke:#263238;stroke-linecap:round;stroke-linejoin:round"></path><path d="M246.4,337c-2.14,1.1-6.42,4.88-11.54,5.84,0,0,6.43-3.59,4.4-4.88s-8.45,2-12.73,4.21-7.11,5.35-9.3,7.64-15.42,5.51-24.71,6.48c-.65,4.64-.58,11,3.24,15.47,15.11-7.45,29.21-14.73,29.21-14.73s13.22-1.8,16.94-4.91S249,338.34,249,338.34,248.54,335.93,246.4,337Z" style="fill:#b2b2b2;stroke:#263238;stroke-linecap:round;stroke-linejoin:round"></path><path d="M249,338.34s-3.79,4.48-4.91,6a10.45,10.45,0,0,1-3.5,2.64" style="fill:none;stroke:#263238;stroke-linecap:round;stroke-linejoin:round"></path><path d="M245.6,346.12a12.05,12.05,0,0,1-3.56,3.29" style="fill:none;stroke:#263238;stroke-linecap:round;stroke-linejoin:round"></path><line x1="234.86" y1="342.87" x2="230.51" y2="342.84" style="fill:none;stroke:#263238;stroke-linecap:round;stroke-linejoin:round"></line></g></svg>